<?xml version="1.0" standalone="no"?>
<!DOCTYPE svg PUBLIC "-//W3C//DTD SVG 20010904//EN"
 "http://www.w3.org/TR/2001/REC-SVG-20010904/DTD/svg10.dtd">
<svg version="1.0" xmlns="http://www.w3.org/2000/svg"
 width="700.000000pt" height="700.000000pt" viewBox="0 0 700.000000 700.000000"
 preserveAspectRatio="xMidYMid meet">
<metadata>
Created by potrace 1.11, written by Peter Selinger 2001-2013
</metadata>
<g transform="translate(0.000000,700.000000) scale(0.100000,-0.100000)"
fill="#000000" stroke="none">
<path d="M2675 6640 c-29 -12 -51 -42 -93 -124 -47 -91 -53 -105 -100 -261
-50 -162 -131 -503 -166 -695 -3 -14 -9 -50 -15 -80 -13 -71 -22 -120 -27
-145 -1 -11 -10 -58 -18 -105 -8 -47 -17 -103 -20 -125 -3 -22 -10 -64 -14
-93 -7 -38 -6 -55 2 -57 39 -13 345 -64 481 -80 17 -2 50 -6 75 -9 25 -3 72
-8 105 -11 33 -4 78 -8 100 -10 74 -8 339 -18 450 -19 256 0 513 23 720 64 28
6 59 12 70 14 31 6 107 26 135 36 14 4 32 10 41 13 14 5 15 13 7 54 -5 26 -12
62 -15 78 -39 229 -163 798 -220 1010 -126 476 -196 591 -329 540 -37 -14
-157 -102 -184 -135 -3 -3 -47 -43 -98 -88 -163 -143 -265 -174 -386 -119 -56
26 -97 63 -259 236 -90 97 -179 138 -242 111z"/>
<path d="M1908 4415 c-489 -115 -887 -236 -1086 -330 -131 -62 -189 -105 -209
-153 -13 -30 -12 -37 4 -62 54 -86 259 -176 600 -266 75 -20 146 -38 157 -40
12 -2 30 -6 41 -8 213 -45 491 -93 640 -111 28 -3 61 -8 75 -10 32 -6 90 -13
160 -20 30 -3 69 -7 85 -9 17 -2 64 -7 105 -10 41 -4 100 -9 130 -12 344 -32
1050 -37 1364 -9 22 2 82 6 131 10 50 3 108 8 130 10 22 2 69 7 105 10 65 6
109 12 165 20 17 2 57 7 90 11 33 3 67 7 75 9 8 1 35 6 60 9 25 4 88 14 140
22 52 8 109 17 125 20 28 4 221 42 255 49 8 2 47 10 85 19 428 92 746 225 783
326 13 35 -10 78 -65 119 -49 36 -230 125 -279 137 -16 4 -33 10 -39 14 -5 4
-57 22 -115 40 -58 17 -139 42 -181 56 -41 13 -84 26 -95 29 -10 2 -118 29
-239 60 -121 31 -263 65 -315 76 -52 11 -104 22 -115 25 -11 2 -44 9 -72 15
-49 11 -59 10 -120 -13 -124 -47 -322 -96 -458 -113 -22 -3 -49 -7 -60 -9 -18
-3 -118 -14 -205 -22 -542 -50 -1227 17 -1544 150 -21 9 -48 16 -60 15 -11 0
-123 -25 -248 -54z"/>
<path d="M1325 3263 c-55 -47 -124 -106 -154 -132 -30 -25 -59 -50 -65 -56 -6
-5 -40 -35 -76 -65 -36 -30 -67 -57 -70 -60 -3 -3 -84 -72 -180 -155 -96 -82
-177 -152 -180 -155 -3 -3 -20 -18 -38 -33 -19 -15 -32 -27 -30 -28 2 0 41 -2
88 -4 47 -2 105 -6 130 -9 42 -5 67 -10 213 -35 42 -8 271 -59 337 -75 222
-56 607 -165 750 -213 12 -3 10 -9 -10 -25 -24 -19 -130 -111 -154 -133 -6 -6
-90 -78 -186 -160 -96 -82 -178 -154 -182 -159 -4 -6 28 -20 75 -34 138 -40
425 -158 722 -297 130 -61 735 -364 843 -422 46 -25 86 -43 88 -40 7 7 124
437 124 454 0 7 -3 13 -7 13 -7 0 -102 74 -178 137 -269 224 -557 535 -762
820 -66 93 -201 301 -216 333 -4 8 -18 33 -32 55 -29 46 -178 344 -214 428
-14 31 -27 57 -30 57 -3 0 -46 7 -96 14 -49 8 -110 18 -135 21 -25 3 -70 10
-100 15 -30 5 -80 12 -110 15 -30 4 -57 8 -60 10 -3 2 -50 -35 -105 -82z"/>
<path d="M5329 3346 c-2 -2 -33 -7 -69 -11 -36 -4 -67 -8 -70 -10 -3 -1 -36
-6 -73 -10 -37 -3 -76 -8 -86 -10 -10 -2 -40 -6 -67 -10 -27 -3 -71 -9 -98
-13 l-49 -7 2 -70 c2 -61 -5 -122 -23 -225 -3 -14 -18 -72 -33 -129 l-28 -104
-69 -54 c-307 -240 -586 -513 -797 -778 -179 -226 -345 -516 -434 -761 -32
-89 -73 -225 -81 -274 -2 -14 -7 -36 -9 -50 -3 -14 -8 -36 -10 -50 -22 -110
-23 -396 -1 -417 2 -2 23 31 46 74 256 475 705 887 1243 1143 265 126 559 223
775 256 35 5 70 24 45 24 -6 0 -82 34 -169 76 -221 106 -338 161 -414 196
l-64 29 29 19 c42 28 223 103 333 139 82 27 397 112 462 125 95 18 132 26 171
35 54 13 240 48 294 55 22 4 63 10 90 15 77 15 247 41 278 43 15 1 27 3 27 4
0 1 -47 35 -105 76 -58 40 -157 109 -220 153 -245 171 -433 303 -516 360 -48
33 -121 84 -163 113 -54 37 -85 52 -109 52 -19 0 -36 -2 -38 -4z"/>
<path d="M2200 3205 c0 -141 34 -230 119 -315 81 -80 188 -126 336 -145 219
-28 385 46 502 223 50 75 108 107 198 108 100 2 161 -33 222 -129 47 -74 138
-145 231 -181 47 -17 78 -21 177 -20 329 1 528 162 534 432 1 40 0 76 -3 81
-3 5 -36 0 -73 -10 -38 -11 -85 -21 -107 -24 -21 -3 -41 -7 -45 -9 -3 -2 -33
-7 -66 -10 -33 -4 -71 -9 -85 -11 -133 -23 -1262 -23 -1504 0 -142 14 -264 33
-373 59 l-63 14 0 -63z"/>
</g>
</svg>
